<svg width="64" height="64" viewBox="0 0 64 64" fill="none" xmlns="http://www.w3.org/2000/svg">
<rect width="64" height="64" fill="white"/>
<path d="M1 31.7295H2.95852C3.48818 31.7295 3.89466 31.7713 4.17797 31.855C4.46436 31.9386 4.67838 32.0595 4.82003 32.2175C4.96477 32.3756 5.06177 32.5677 5.11104 32.7939C5.16339 33.0171 5.18957 33.3642 5.18957 33.8352V34.4906C5.18957 34.971 5.14029 35.3212 5.04175 35.5412C4.94321 35.7612 4.76152 35.9301 4.49669 36.0479C4.23494 36.1656 3.89159 36.2245 3.46662 36.2245H2.94466V39.2553H1V31.7295ZM2.94466 33.0171V34.9322C3.00009 34.9353 3.04782 34.9369 3.08785 34.9369C3.26646 34.9369 3.38964 34.8935 3.45739 34.8067C3.52821 34.7169 3.56363 34.5325 3.56363 34.2536V33.6353C3.56363 33.3781 3.52359 33.2108 3.44353 33.1333C3.36346 33.0558 3.19717 33.0171 2.94466 33.0171Z" fill="black"/>
<path d="M7.55919 33.0868L7.48528 33.8956C7.75627 33.3161 8.1489 33.0093 8.66316 32.9752V35.1461C8.32135 35.1461 8.07037 35.1925 7.91024 35.2855C7.75011 35.3785 7.65157 35.5086 7.61462 35.676C7.57766 35.8402 7.55919 36.2214 7.55919 36.8195V39.2553H5.69305V33.0868H7.55919Z" fill="black"/>
<path d="M13.3054 35.253V36.7637C13.3054 37.3184 13.2777 37.726 13.2223 37.9863C13.1668 38.2435 13.0483 38.4852 12.8666 38.7114C12.6849 38.9346 12.4509 39.1003 12.1645 39.2088C11.8812 39.3142 11.5547 39.3669 11.1852 39.3669C10.7726 39.3669 10.4231 39.3219 10.1367 39.2321C9.85028 39.1391 9.62702 39.0012 9.46689 38.8183C9.30984 38.6324 9.19744 38.4093 9.1297 38.149C9.06195 37.8856 9.02808 37.492 9.02808 36.9683V35.3878C9.02808 34.8145 9.08966 34.3667 9.21284 34.0444C9.33602 33.7221 9.55774 33.4633 9.878 33.2681C10.1983 33.0729 10.6078 32.9752 11.1067 32.9752C11.5255 32.9752 11.8842 33.0388 12.183 33.1658C12.4847 33.2898 12.7172 33.4525 12.8804 33.6539C13.0437 33.8553 13.1545 34.063 13.213 34.2768C13.2746 34.4906 13.3054 34.816 13.3054 35.253ZM11.4393 34.7881C11.4393 34.472 11.4223 34.2737 11.3885 34.1931C11.3546 34.1095 11.2822 34.0676 11.1714 34.0676C11.0605 34.0676 10.9866 34.1095 10.9496 34.1931C10.9127 34.2737 10.8942 34.472 10.8942 34.7881V37.5726C10.8942 37.8639 10.9127 38.0544 10.9496 38.1443C10.9866 38.2311 11.059 38.2745 11.1667 38.2745C11.2776 38.2745 11.35 38.2342 11.3838 38.1536C11.4208 38.073 11.4393 37.8995 11.4393 37.633V34.7881Z" fill="black"/>
<path d="M15.9014 31.7295V32.7103H13.9798V31.7295H15.9014ZM15.9014 33.0868V37.9677C15.9014 38.541 15.889 38.9299 15.8644 39.1344C15.8429 39.3359 15.772 39.5125 15.6519 39.6644C15.5349 39.8193 15.3763 39.934 15.1762 40.0083C14.9791 40.0827 14.6819 40.1199 14.2847 40.1199H13.5641V39.1344C13.7858 39.1344 13.9105 39.1096 13.9382 39.0601C13.9659 39.0105 13.9798 38.7006 13.9798 38.1304V33.0868H15.9014Z" fill="black"/>
<path d="M20.8023 36.2803H18.3865V37.6144C18.3865 37.8933 18.4065 38.073 18.4465 38.1536C18.4865 38.2342 18.5635 38.2745 18.6775 38.2745C18.8191 38.2745 18.913 38.2218 18.9592 38.1164C19.0085 38.008 19.0331 37.8003 19.0331 37.4935V36.6801H20.8023V37.1356C20.8023 37.5168 20.7776 37.8096 20.7284 38.0142C20.6822 38.2187 20.5713 38.4372 20.3958 38.6696C20.2203 38.902 19.997 39.0771 19.726 39.1949C19.4581 39.3095 19.1209 39.3669 18.7144 39.3669C18.3203 39.3669 17.9723 39.3095 17.6705 39.1949C17.3687 39.0802 17.1331 38.9237 16.9638 38.7254C16.7975 38.5239 16.682 38.3039 16.6173 38.0653C16.5527 37.8236 16.5203 37.4734 16.5203 37.0147V35.2158C16.5203 34.6766 16.5927 34.252 16.7374 33.9421C16.8822 33.6291 17.1193 33.3905 17.4488 33.2263C17.7783 33.0589 18.157 32.9752 18.5851 32.9752C19.1086 32.9752 19.5397 33.076 19.8784 33.2774C20.2203 33.4757 20.4589 33.7407 20.5944 34.0723C20.733 34.4008 20.8023 34.8641 20.8023 35.4622V36.2803ZM18.9315 35.2762V34.8253C18.9315 34.5061 18.9146 34.3 18.8807 34.2071C18.8468 34.1141 18.7776 34.0676 18.6729 34.0676C18.5435 34.0676 18.4635 34.1079 18.4327 34.1885C18.4019 34.266 18.3865 34.4782 18.3865 34.8253V35.2762H18.9315Z" fill="black"/>
<path d="M23.3844 32.264V33.2355H23.8879V34.2117H23.3844V37.5121C23.3844 37.9181 23.4044 38.1443 23.4444 38.1908C23.4875 38.2373 23.6615 38.2605 23.9664 38.2605V39.2553H23.2135C22.7885 39.2553 22.4852 39.2383 22.3035 39.2042C22.1218 39.167 21.9617 39.0849 21.8231 38.9578C21.6845 38.8276 21.5983 38.6804 21.5644 38.5162C21.5306 38.3488 21.5136 37.9584 21.5136 37.3448V34.2117H21.1118V33.2355H21.5136V32.264H23.3844Z" fill="black"/>
<path d="M28.5209 35.253V36.7637C28.5209 37.3184 28.4932 37.726 28.4377 37.9863C28.3823 38.2435 28.2637 38.4852 28.0821 38.7114C27.9004 38.9346 27.6663 39.1003 27.3799 39.2088C27.0966 39.3142 26.7702 39.3669 26.4007 39.3669C25.988 39.3669 25.6385 39.3219 25.3521 39.2321C25.0658 39.1391 24.8425 39.0012 24.6824 38.8183C24.5253 38.6324 24.4129 38.4093 24.3452 38.149C24.2774 37.8856 24.2435 37.492 24.2435 36.9683V35.3878C24.2435 34.8145 24.3051 34.3667 24.4283 34.0444C24.5515 33.7221 24.7732 33.4633 25.0935 33.2681C25.4137 33.0729 25.8233 32.9752 26.3222 32.9752C26.741 32.9752 27.0997 33.0388 27.3984 33.1658C27.7002 33.2898 27.9327 33.4525 28.0959 33.6539C28.2591 33.8553 28.37 34.063 28.4285 34.2768C28.4901 34.4906 28.5209 34.816 28.5209 35.253ZM26.6547 34.7881C26.6547 34.472 26.6378 34.2737 26.6039 34.1931C26.5701 34.1095 26.4977 34.0676 26.3868 34.0676C26.276 34.0676 26.2021 34.1095 26.1651 34.1931C26.1282 34.2737 26.1097 34.472 26.1097 34.7881V37.5726C26.1097 37.8639 26.1282 38.0544 26.1651 38.1443C26.2021 38.2311 26.2744 38.2745 26.3822 38.2745C26.4931 38.2745 26.5654 38.2342 26.5993 38.1536C26.6363 38.073 26.6547 37.8995 26.6547 37.633V34.7881Z" fill="black"/>
<path d="M36.9111 34.0072H35.105V33.4494C35.105 33.1891 35.0819 33.0233 35.0357 32.952C34.9895 32.8807 34.9125 32.8451 34.8047 32.8451C34.6877 32.8451 34.5984 32.8931 34.5368 32.9892C34.4783 33.0852 34.4491 33.2309 34.4491 33.4261C34.4491 33.6772 34.4829 33.8662 34.5507 33.9932C34.6153 34.1203 34.7986 34.2737 35.1004 34.4534C35.9657 34.971 36.5107 35.3955 36.7355 35.7271C36.9603 36.0587 37.0727 36.5933 37.0727 37.3308C37.0727 37.867 37.0096 38.2621 36.8833 38.5162C36.7602 38.7703 36.52 38.9841 36.1628 39.1577C35.8055 39.3281 35.3898 39.4133 34.9156 39.4133C34.3952 39.4133 33.9502 39.3142 33.5807 39.1158C33.2142 38.9175 32.974 38.6649 32.8601 38.3581C32.7461 38.0513 32.6892 37.6159 32.6892 37.0519V36.5592H34.4953V37.4749C34.4953 37.7569 34.5199 37.9382 34.5692 38.0188C34.6215 38.0994 34.7123 38.1397 34.8417 38.1397C34.971 38.1397 35.0665 38.0885 35.1281 37.9863C35.1927 37.884 35.2251 37.7322 35.2251 37.5307C35.2251 37.0876 35.165 36.7978 35.0449 36.6615C34.9218 36.5251 34.6184 36.2973 34.135 35.9781C33.6515 35.6558 33.3312 35.4219 33.1742 35.2762C33.0171 35.1306 32.8862 34.9291 32.7815 34.6719C32.6799 34.4147 32.6291 34.0862 32.6291 33.6864C32.6291 33.11 32.7015 32.6886 32.8462 32.4221C32.994 32.1556 33.2311 31.9479 33.5576 31.7992C33.884 31.6473 34.2782 31.5714 34.7401 31.5714C35.2451 31.5714 35.6747 31.6535 36.0288 31.8178C36.386 31.982 36.6216 32.1896 36.7355 32.4407C36.8526 32.6886 36.9111 33.1116 36.9111 33.7097V34.0072Z" fill="black"/>
<path d="M41.8535 35.253V36.7637C41.8535 37.3184 41.8258 37.726 41.7704 37.9863C41.715 38.2435 41.5964 38.4852 41.4147 38.7114C41.233 38.9346 40.999 39.1003 40.7126 39.2088C40.4293 39.3142 40.1029 39.3669 39.7334 39.3669C39.3207 39.3669 38.9712 39.3219 38.6848 39.2321C38.3984 39.1391 38.1752 39.0012 38.015 38.8183C37.858 38.6324 37.7456 38.4093 37.6778 38.149C37.6101 37.8856 37.5762 37.492 37.5762 36.9683V35.3878C37.5762 34.8145 37.6378 34.3667 37.761 34.0444C37.8842 33.7221 38.1059 33.4633 38.4261 33.2681C38.7464 33.0729 39.156 32.9752 39.6548 32.9752C40.0736 32.9752 40.4324 33.0388 40.7311 33.1658C41.0329 33.2898 41.2654 33.4525 41.4286 33.6539C41.5918 33.8553 41.7027 34.063 41.7612 34.2768C41.8228 34.4906 41.8535 34.816 41.8535 35.253ZM39.9874 34.7881C39.9874 34.472 39.9705 34.2737 39.9366 34.1931C39.9027 34.1095 39.8304 34.0676 39.7195 34.0676C39.6086 34.0676 39.5347 34.1095 39.4978 34.1931C39.4608 34.2737 39.4424 34.472 39.4424 34.7881V37.5726C39.4424 37.8639 39.4608 38.0544 39.4978 38.1443C39.5347 38.2311 39.6071 38.2745 39.7149 38.2745C39.8257 38.2745 39.8981 38.2342 39.932 38.1536C39.9689 38.073 39.9874 37.8995 39.9874 37.633V34.7881Z" fill="black"/>
<path d="M46.5974 35.4157H44.8375V34.7045C44.8375 34.4565 44.8175 34.2892 44.7775 34.2024C44.7374 34.1126 44.6635 34.0676 44.5558 34.0676C44.448 34.0676 44.3756 34.1064 44.3387 34.1838C44.3017 34.2613 44.2832 34.4349 44.2832 34.7045V37.6144C44.2832 37.8344 44.3109 38.0002 44.3664 38.1118C44.4218 38.2202 44.5034 38.2745 44.6112 38.2745C44.7374 38.2745 44.8221 38.2171 44.8652 38.1025C44.9114 37.9878 44.9345 37.7709 44.9345 37.4517V36.7172H46.5974C46.5943 37.21 46.5759 37.5803 46.542 37.8282C46.5112 38.073 46.408 38.3256 46.2325 38.5859C46.0601 38.8431 45.8337 39.0384 45.5535 39.1716C45.2733 39.3018 44.9268 39.3669 44.5142 39.3669C43.9876 39.3669 43.5703 39.277 43.2624 39.0973C42.9544 38.9144 42.7358 38.6603 42.6065 38.3349C42.4802 38.0064 42.4171 37.5416 42.4171 36.9404V35.1879C42.4171 34.6642 42.4694 34.2691 42.5741 34.0025C42.6788 33.736 42.9021 33.499 43.2439 33.2913C43.5857 33.0806 44.0015 32.9752 44.4911 32.9752C44.9776 32.9752 45.3934 33.0791 45.7383 33.2867C46.0831 33.4943 46.3126 33.7562 46.4265 34.0723C46.5404 34.3884 46.5974 34.8362 46.5974 35.4157Z" fill="black"/>
<path d="M51.3782 35.253V36.7637C51.3782 37.3184 51.3505 37.726 51.2951 37.9863C51.2397 38.2435 51.1211 38.4852 50.9394 38.7114C50.7577 38.9346 50.5237 39.1003 50.2373 39.2088C49.954 39.3142 49.6276 39.3669 49.258 39.3669C48.8454 39.3669 48.4959 39.3219 48.2095 39.2321C47.9231 39.1391 47.6998 39.0012 47.5397 38.8183C47.3827 38.6324 47.2703 38.4093 47.2025 38.149C47.1348 37.8856 47.1009 37.492 47.1009 36.9683V35.3878C47.1009 34.8145 47.1625 34.3667 47.2857 34.0444C47.4088 33.7221 47.6306 33.4633 47.9508 33.2681C48.2711 33.0729 48.6806 32.9752 49.1795 32.9752C49.5983 32.9752 49.9571 33.0388 50.2558 33.1658C50.5576 33.2898 50.7901 33.4525 50.9533 33.6539C51.1165 33.8553 51.2273 34.063 51.2858 34.2768C51.3474 34.4906 51.3782 34.816 51.3782 35.253ZM49.5121 34.7881C49.5121 34.472 49.4952 34.2737 49.4613 34.1931C49.4274 34.1095 49.355 34.0676 49.2442 34.0676C49.1333 34.0676 49.0594 34.1095 49.0225 34.1931C48.9855 34.2737 48.967 34.472 48.967 34.7881V37.5726C48.967 37.8639 48.9855 38.0544 49.0225 38.1443C49.0594 38.2311 49.1318 38.2745 49.2396 38.2745C49.3504 38.2745 49.4228 38.2342 49.4567 38.1536C49.4936 38.073 49.5121 37.8995 49.5121 37.633V34.7881Z" fill="black"/>
<path d="M53.8633 33.0868L53.7894 33.8956C54.0604 33.3161 54.453 33.0093 54.9673 32.9752V35.1461C54.6255 35.1461 54.3745 35.1925 54.2144 35.2855C54.0543 35.3785 53.9557 35.5086 53.9188 35.676C53.8818 35.8402 53.8633 36.2214 53.8633 36.8195V39.2553H51.9972V33.0868H53.8633Z" fill="black"/>
<path d="M57.2538 33.0868L57.1799 33.8956C57.4509 33.3161 57.8435 33.0093 58.3578 32.9752V35.1461C58.0159 35.1461 57.765 35.1925 57.6048 35.2855C57.4447 35.3785 57.3462 35.5086 57.3092 35.676C57.2723 35.8402 57.2538 36.2214 57.2538 36.8195V39.2553H55.3876V33.0868H57.2538Z" fill="black"/>
<path d="M63 35.253V36.7637C63 37.3184 62.9723 37.726 62.9169 37.9863C62.8614 38.2435 62.7429 38.4852 62.5612 38.7114C62.3795 38.9346 62.1455 39.1003 61.8591 39.2088C61.5758 39.3142 61.2493 39.3669 60.8798 39.3669C60.4672 39.3669 60.1177 39.3219 59.8313 39.2321C59.5449 39.1391 59.3216 39.0012 59.1615 38.8183C59.0044 38.6324 58.892 38.4093 58.8243 38.149C58.7565 37.8856 58.7227 37.492 58.7227 36.9683V35.3878C58.7227 34.8145 58.7843 34.3667 58.9074 34.0444C59.0306 33.7221 59.2523 33.4633 59.5726 33.2681C59.8929 33.0729 60.3024 32.9752 60.8013 32.9752C61.2201 32.9752 61.5788 33.0388 61.8775 33.1658C62.1793 33.2898 62.4118 33.4525 62.575 33.6539C62.7382 33.8553 62.8491 34.063 62.9076 34.2768C62.9692 34.4906 63 34.816 63 35.253ZM61.1339 34.7881C61.1339 34.472 61.1169 34.2737 61.0831 34.1931C61.0492 34.1095 60.9768 34.0676 60.866 34.0676C60.7551 34.0676 60.6812 34.1095 60.6442 34.1931C60.6073 34.2737 60.5888 34.472 60.5888 34.7881V37.5726C60.5888 37.8639 60.6073 38.0544 60.6442 38.1443C60.6812 38.2311 60.7536 38.2745 60.8613 38.2745C60.9722 38.2745 61.0446 38.2342 61.0784 38.1536C61.1154 38.073 61.1339 37.8995 61.1339 37.633V34.7881Z" fill="black"/>
<path d="M37.165 29.8324V27.4686H31.6305V23H29.4425L29.4502 27.4686H23.9724V29.8324H29.4542L29.4747 41.781H31.6305V29.8324H37.165Z" fill="#EF1C22"/>
</svg>
