<svg width="274" height="83" viewBox="0 0 274 83" fill="none" xmlns="http://www.w3.org/2000/svg">
<path d="M0 38.5785H8.65539C10.9962 38.5785 12.7926 38.7634 14.0446 39.1332C15.3102 39.503 16.2561 40.0371 16.8821 40.7356C17.5217 41.434 17.9504 42.2832 18.1681 43.2829C18.3995 44.269 18.5152 45.8029 18.5152 47.8846V50.7812C18.5152 52.904 18.2974 54.4516 17.8619 55.4239C17.4264 56.3963 16.6235 57.1427 15.4531 57.6631C14.2964 58.1836 12.7789 58.4438 10.9009 58.4438H8.59414V71.8379H0V38.5785ZM8.59414 44.269V52.7328C8.83911 52.7465 9.05005 52.7533 9.22697 52.7533C10.0163 52.7533 10.5607 52.5616 10.8601 52.1781C11.1731 51.7809 11.3296 50.9661 11.3296 49.7335V47.0012C11.3296 45.8645 11.1527 45.125 10.7988 44.7826C10.445 44.4402 9.71009 44.269 8.59414 44.269Z" fill="black"/>
<path d="M28.9874 44.5771L28.6608 48.1517C29.8584 45.5906 31.5935 44.2348 33.8662 44.0841V53.6778C32.3556 53.6778 31.2465 53.8832 30.5388 54.2941C29.8311 54.7049 29.3956 55.2801 29.2323 56.0197C29.069 56.7455 28.9874 58.4301 28.9874 61.0733V71.8379H20.7403V44.5771H28.9874Z" fill="black"/>
<path d="M54.382 54.1503V60.8268C54.382 63.2783 54.2595 65.0792 54.0145 66.2296C53.7695 67.3664 53.2456 68.4346 52.4427 69.4344C51.6397 70.4205 50.6054 71.1532 49.3398 71.6325C48.0877 72.0981 46.6452 72.331 45.0121 72.331C43.1885 72.331 41.6438 72.1324 40.3782 71.7352C39.1125 71.3244 38.1259 70.7149 37.4182 69.9069C36.7241 69.0851 36.2274 68.0991 35.928 66.9487C35.6286 65.7845 35.4789 64.0452 35.4789 61.7307V54.746C35.4789 52.2124 35.7511 50.2334 36.2955 48.809C36.8398 47.3847 37.8197 46.2411 39.235 45.3783C40.6504 44.5155 42.4604 44.0841 44.6651 44.0841C46.5159 44.0841 48.1014 44.3649 49.4214 44.9264C50.7551 45.4742 51.7826 46.1932 52.5039 47.0834C53.2252 47.9736 53.7151 48.8912 53.9737 49.8362C54.2459 50.7812 54.382 52.2192 54.382 54.1503ZM46.1348 52.0959C46.1348 50.699 46.06 49.8225 45.9103 49.4664C45.7606 49.0966 45.4408 48.9118 44.9508 48.9118C44.4609 48.9118 44.1343 49.0966 43.971 49.4664C43.8077 49.8225 43.726 50.699 43.726 52.0959V64.4013C43.726 65.6887 43.8077 66.5309 43.971 66.9281C44.1343 67.3116 44.4541 67.5033 44.9304 67.5033C45.4204 67.5033 45.7402 67.3253 45.8899 66.9692C46.0532 66.6131 46.1348 65.8462 46.1348 64.6684V52.0959Z" fill="black"/>
<path d="M65.8544 38.5785V42.9131H57.3623V38.5785H65.8544ZM65.8544 44.5771V66.1475C65.8544 68.6811 65.8 70.3999 65.6911 71.3038C65.5958 72.194 65.2828 72.9747 64.7521 73.6457C64.2349 74.3305 63.5341 74.8372 62.6495 75.1659C61.7785 75.4946 60.4652 75.659 58.7096 75.659H55.5251V71.3038C56.505 71.3038 57.0561 71.1942 57.1786 70.9751C57.3011 70.756 57.3623 69.3864 57.3623 66.8665V44.5771H65.8544Z" fill="black"/>
<path d="M87.5133 58.6903H76.837V64.5862C76.837 65.8188 76.9254 66.6131 77.1023 66.9692C77.2793 67.3253 77.6195 67.5033 78.123 67.5033C78.749 67.5033 79.1641 67.2705 79.3682 66.8049C79.586 66.3255 79.6949 65.4079 79.6949 64.0521V60.457H87.5133V62.4702C87.5133 64.1548 87.4044 65.449 87.1867 66.3529C86.9825 67.2568 86.4926 68.2223 85.7169 69.2495C84.9412 70.2766 83.9545 71.0504 82.7569 71.5709C81.5729 72.0776 80.0827 72.331 78.2863 72.331C76.5444 72.331 75.0065 72.0776 73.6728 71.5709C72.3391 71.0641 71.2981 70.3725 70.5496 69.496C69.8147 68.6058 69.3043 67.6334 69.0185 66.5789C68.7327 65.5106 68.5898 63.9631 68.5898 61.9361V53.9859C68.5898 51.6029 68.9097 49.7266 69.5493 48.3571C70.1889 46.9738 71.2368 45.9193 72.693 45.1934C74.1492 44.4539 75.8231 44.0841 77.7147 44.0841C80.0283 44.0841 81.9336 44.5292 83.4306 45.4194C84.9412 46.2959 85.9959 47.4669 86.5947 48.9323C87.2071 50.384 87.5133 52.4315 87.5133 55.0747V58.6903ZM79.2458 54.253V52.2603C79.2458 50.8497 79.1709 49.9389 79.0212 49.528C78.8715 49.1172 78.5653 48.9118 78.1026 48.9118C77.531 48.9118 77.1772 49.0898 77.0411 49.4459C76.905 49.7883 76.837 50.7264 76.837 52.2603V54.253H79.2458Z" fill="black"/>
<path d="M98.9245 40.941V45.2345H101.15V49.5486H98.9245V64.1342C98.9245 65.9283 99.013 66.9281 99.1899 67.1335C99.3804 67.339 100.149 67.4417 101.497 67.4417V71.8379H98.1692C96.2912 71.8379 94.9507 71.7626 94.1477 71.612C93.3448 71.4476 92.6371 71.0847 92.0247 70.5232C91.4123 69.948 91.0312 69.2974 90.8815 68.5716C90.7318 67.832 90.657 66.1064 90.657 63.3947V49.5486H88.881V45.2345H90.657V40.941H98.9245Z" fill="black"/>
<path d="M121.624 54.1503V60.8268C121.624 63.2783 121.502 65.0792 121.257 66.2296C121.012 67.3664 120.488 68.4346 119.685 69.4344C118.882 70.4205 117.848 71.1532 116.582 71.6325C115.33 72.0981 113.888 72.331 112.255 72.331C110.431 72.331 108.886 72.1324 107.621 71.7352C106.355 71.3244 105.368 70.7149 104.661 69.9069C103.967 69.0851 103.47 68.0991 103.171 66.9487C102.871 65.7845 102.721 64.0452 102.721 61.7307V54.746C102.721 52.2124 102.994 50.2334 103.538 48.809C104.082 47.3847 105.062 46.2411 106.478 45.3783C107.893 44.5155 109.703 44.0841 111.908 44.0841C113.758 44.0841 115.344 44.3649 116.664 44.9264C117.998 45.4742 119.025 46.1932 119.746 47.0834C120.468 47.9736 120.958 48.8912 121.216 49.8362C121.488 50.7812 121.624 52.2192 121.624 54.1503ZM113.377 52.0959C113.377 50.699 113.303 49.8225 113.153 49.4664C113.003 49.0966 112.683 48.9118 112.193 48.9118C111.703 48.9118 111.377 49.0966 111.214 49.4664C111.05 49.8225 110.969 50.699 110.969 52.0959V64.4013C110.969 65.6887 111.05 66.5309 111.214 66.9281C111.377 67.3116 111.697 67.5033 112.173 67.5033C112.663 67.5033 112.983 67.3253 113.132 66.9692C113.296 66.6131 113.377 65.8462 113.377 64.6684V52.0959Z" fill="black"/>
<path d="M158.704 48.6447H150.722V46.1795C150.722 45.0291 150.62 44.2964 150.416 43.9814C150.212 43.6664 149.871 43.5089 149.395 43.5089C148.878 43.5089 148.483 43.7212 148.211 44.1457C147.953 44.5703 147.823 45.214 147.823 46.0768C147.823 47.1861 147.973 48.0215 148.272 48.5831C148.558 49.1446 149.368 49.8225 150.702 50.6168C154.526 52.904 156.935 54.7803 157.928 56.2457C158.921 57.7111 159.418 60.0735 159.418 63.3331C159.418 65.7024 159.139 67.4485 158.581 68.5716C158.037 69.6946 156.975 70.6396 155.397 71.4065C153.818 72.1598 151.981 72.5364 149.885 72.5364C147.585 72.5364 145.619 72.0981 143.985 71.2216C142.366 70.3451 141.305 69.229 140.801 67.8731C140.297 66.5173 140.046 64.593 140.046 62.1005V59.9229H148.027V63.9699C148.027 65.2162 148.136 66.0174 148.354 66.3735C148.585 66.7295 148.987 66.9076 149.558 66.9076C150.13 66.9076 150.552 66.6816 150.824 66.2296C151.11 65.7777 151.253 65.1066 151.253 64.2164C151.253 62.258 150.987 60.9774 150.457 60.3748C149.912 59.7722 148.572 58.7656 146.435 57.355C144.298 55.9307 142.883 54.8967 142.189 54.253C141.495 53.6093 140.917 52.7191 140.454 51.5824C140.005 50.4456 139.78 48.9939 139.78 47.2272C139.78 44.6799 140.1 42.8173 140.74 41.6395C141.393 40.4617 142.441 39.5441 143.883 38.8867C145.326 38.2156 147.068 37.8801 149.109 37.8801C151.341 37.8801 153.24 38.243 154.805 38.9689C156.383 39.6947 157.424 40.6123 157.928 41.7216C158.445 42.8173 158.704 44.6867 158.704 47.3299V48.6447Z" fill="black"/>
<path d="M180.546 54.1503V60.8268C180.546 63.2783 180.424 65.0792 180.179 66.2296C179.934 67.3664 179.41 68.4346 178.607 69.4344C177.804 70.4205 176.77 71.1532 175.504 71.6325C174.252 72.0981 172.81 72.331 171.176 72.331C169.353 72.331 167.808 72.1324 166.543 71.7352C165.277 71.3244 164.29 70.7149 163.583 69.9069C162.889 69.0851 162.392 68.0991 162.092 66.9487C161.793 65.7845 161.643 64.0452 161.643 61.7307V54.746C161.643 52.2124 161.915 50.2334 162.46 48.809C163.004 47.3847 163.984 46.2411 165.399 45.3783C166.815 44.5155 168.625 44.0841 170.829 44.0841C172.68 44.0841 174.266 44.3649 175.586 44.9264C176.92 45.4742 177.947 46.1932 178.668 47.0834C179.39 47.9736 179.879 48.8912 180.138 49.8362C180.41 50.7812 180.546 52.2192 180.546 54.1503ZM172.299 52.0959C172.299 50.699 172.224 49.8225 172.075 49.4664C171.925 49.0966 171.605 48.9118 171.115 48.9118C170.625 48.9118 170.299 49.0966 170.135 49.4664C169.972 49.8225 169.89 50.699 169.89 52.0959V64.4013C169.89 65.6887 169.972 66.5309 170.135 66.9281C170.299 67.3116 170.618 67.5033 171.095 67.5033C171.585 67.5033 171.905 67.3253 172.054 66.9692C172.218 66.6131 172.299 65.8462 172.299 64.6684V52.0959Z" fill="black"/>
<path d="M201.511 54.8693H193.734V51.7262C193.734 50.6305 193.645 49.891 193.468 49.5075C193.291 49.1103 192.965 48.9118 192.488 48.9118C192.012 48.9118 191.692 49.0829 191.529 49.4253C191.366 49.7677 191.284 50.5347 191.284 51.7262V64.5862C191.284 65.5586 191.406 66.2913 191.651 66.7843C191.896 67.2636 192.257 67.5033 192.733 67.5033C193.291 67.5033 193.665 67.25 193.856 66.7432C194.06 66.2365 194.162 65.2778 194.162 63.8672V60.6214H201.511C201.498 62.7989 201.416 64.4355 201.266 65.5312C201.13 66.6131 200.674 67.7293 199.898 68.8797C199.136 70.0164 198.136 70.8792 196.898 71.4682C195.659 72.0434 194.128 72.331 192.305 72.331C189.977 72.331 188.133 71.9338 186.772 71.1395C185.412 70.3314 184.445 69.2084 183.874 67.7704C183.316 66.3187 183.037 64.2644 183.037 61.6074V53.8627C183.037 51.5481 183.268 49.802 183.731 48.6241C184.194 47.4463 185.18 46.3986 186.691 45.481C188.201 44.5498 190.039 44.0841 192.203 44.0841C194.353 44.0841 196.19 44.5429 197.714 45.4605C199.238 46.3781 200.252 47.5354 200.756 48.9323C201.259 50.3292 201.511 52.3082 201.511 54.8693Z" fill="black"/>
<path d="M222.639 54.1503V60.8268C222.639 63.2783 222.517 65.0792 222.272 66.2296C222.027 67.3664 221.503 68.4346 220.7 69.4344C219.897 70.4205 218.863 71.1532 217.597 71.6325C216.345 72.0981 214.902 72.331 213.269 72.331C211.446 72.331 209.901 72.1324 208.635 71.7352C207.37 71.3244 206.383 70.7149 205.676 69.9069C204.981 69.0851 204.485 68.0991 204.185 66.9487C203.886 65.7845 203.736 64.0452 203.736 61.7307V54.746C203.736 52.2124 204.008 50.2334 204.553 48.809C205.097 47.3847 206.077 46.2411 207.492 45.3783C208.908 44.5155 210.718 44.0841 212.922 44.0841C214.773 44.0841 216.359 44.3649 217.679 44.9264C219.012 45.4742 220.04 46.1932 220.761 47.0834C221.482 47.9736 221.972 48.8912 222.231 49.8362C222.503 50.7812 222.639 52.2192 222.639 54.1503ZM214.392 52.0959C214.392 50.699 214.317 49.8225 214.168 49.4664C214.018 49.0966 213.698 48.9118 213.208 48.9118C212.718 48.9118 212.392 49.0966 212.228 49.4664C212.065 49.8225 211.983 50.699 211.983 52.0959V64.4013C211.983 65.6887 212.065 66.5309 212.228 66.9281C212.392 67.3116 212.711 67.5033 213.188 67.5033C213.678 67.5033 213.997 67.3253 214.147 66.9692C214.311 66.6131 214.392 65.8462 214.392 64.6684V52.0959Z" fill="black"/>
<path d="M233.622 44.5771L233.295 48.1517C234.493 45.5906 236.228 44.2348 238.501 44.0841V53.6778C236.99 53.6778 235.881 53.8832 235.173 54.2941C234.466 54.7049 234.03 55.2801 233.867 56.0197C233.703 56.7455 233.622 58.4301 233.622 61.0733V71.8379H225.375V44.5771H233.622Z" fill="black"/>
<path d="M248.605 44.5771L248.279 48.1517C249.476 45.5906 251.212 44.2348 253.484 44.0841V53.6778C251.974 53.6778 250.865 53.8832 250.157 54.2941C249.449 54.7049 249.014 55.2801 248.85 56.0197C248.687 56.7455 248.605 58.4301 248.605 61.0733V71.8379H240.358V44.5771H248.605Z" fill="black"/>
<path d="M274 54.1503V60.8268C274 63.2783 273.878 65.0792 273.633 66.2296C273.388 67.3664 272.864 68.4346 272.061 69.4344C271.258 70.4205 270.223 71.1532 268.958 71.6325C267.706 72.0981 266.263 72.331 264.63 72.331C262.807 72.331 261.262 72.1324 259.996 71.7352C258.731 71.3244 257.744 70.7149 257.036 69.9069C256.342 69.0851 255.845 68.0991 255.546 66.9487C255.247 65.7845 255.097 64.0452 255.097 61.7307V54.746C255.097 52.2124 255.369 50.2334 255.913 48.809C256.458 47.3847 257.438 46.2411 258.853 45.3783C260.268 44.5155 262.078 44.0841 264.283 44.0841C266.134 44.0841 267.719 44.3649 269.039 44.9264C270.373 45.4742 271.401 46.1932 272.122 47.0834C272.843 47.9736 273.333 48.8912 273.592 49.8362C273.864 50.7812 274 52.2192 274 54.1503ZM265.753 52.0959C265.753 50.699 265.678 49.8225 265.528 49.4664C265.379 49.0966 265.059 48.9118 264.569 48.9118C264.079 48.9118 263.752 49.0966 263.589 49.4664C263.426 49.8225 263.344 50.699 263.344 52.0959V64.4013C263.344 65.6887 263.426 66.5309 263.589 66.9281C263.752 67.3116 264.072 67.5033 264.548 67.5033C265.038 67.5033 265.358 67.3253 265.508 66.9692C265.671 66.6131 265.753 65.8462 265.753 64.6684V52.0959Z" fill="black"/>
<path d="M159.826 30.1948V19.7483H135.367V0H125.698L125.731 19.7483H101.523V30.1948H125.749L125.84 83H135.367V30.1948H159.826Z" fill="#EF1C22"/>
</svg>
